<svg width="284" height="88" viewBox="0 0 284 88" fill="none" xmlns="http://www.w3.org/2000/svg">
<g filter="url(#filter0_dd_59_2)">
<path d="M4 49.0141V0C16.9256 3.19249 48.8215 7.66197 73 0V6.76056C61.0248 9.57747 30.4595 12.169 4 0C22.7041 13.5211 57.7934 15.3991 73 14.6479V51.2676L64.4463 61.9718V19.7183C30.2314 19.7183 9.89256 6.57277 4 0C19.0545 18.9296 44.8678 24.4131 55.8926 24.7887V70.4225L46.7686 75.493V28.169C40.3818 27.7183 34.6033 25.7277 32.5124 24.7887C17.4579 18.9296 7.23141 5.8216 4 0C11.7554 21.1831 29.6612 30.2347 37.6446 32.1127V80C12.5537 65.5775 4.76033 53.3333 4 49.0141Z" fill="#FF0000"/>
</g>
<path d="M123.125 12.8203H125.398V22.7461C125.398 24.4727 125.203 25.8438 124.812 26.8594C124.422 27.875 123.715 28.7031 122.691 29.3438C121.676 29.9766 120.34 30.293 118.684 30.293C117.074 30.293 115.758 30.0156 114.734 29.4609C113.711 28.9062 112.98 28.1055 112.543 27.0586C112.105 26.0039 111.887 24.5664 111.887 22.7461V12.8203H114.16V22.7344C114.16 24.2266 114.297 25.3281 114.57 26.0391C114.852 26.7422 115.328 27.2852 116 27.668C116.68 28.0508 117.508 28.2422 118.484 28.2422C120.156 28.2422 121.348 27.8633 122.059 27.1055C122.77 26.3477 123.125 24.8906 123.125 22.7344V12.8203ZM128.926 30V17.5547H130.824V19.3242C131.738 17.957 133.059 17.2734 134.785 17.2734C135.535 17.2734 136.223 17.4102 136.848 17.6836C137.48 17.9492 137.953 18.3008 138.266 18.7383C138.578 19.1758 138.797 19.6953 138.922 20.2969C139 20.6875 139.039 21.3711 139.039 22.3477V30H136.93V22.4297C136.93 21.5703 136.848 20.9297 136.684 20.5078C136.52 20.0781 136.227 19.7383 135.805 19.4883C135.391 19.2305 134.902 19.1016 134.34 19.1016C133.441 19.1016 132.664 19.3867 132.008 19.957C131.359 20.5273 131.035 21.6094 131.035 23.2031V30H128.926ZM142.297 15.2461V12.8203H144.406V15.2461H142.297ZM142.297 30V17.5547H144.406V30H142.297ZM151.086 30L146.352 17.5547H148.578L151.25 25.0078C151.539 25.8125 151.805 26.6484 152.047 27.5156C152.234 26.8594 152.496 26.0703 152.832 25.1484L155.598 17.5547H157.766L153.055 30H151.086ZM168.148 25.9922L170.328 26.2617C169.984 27.5352 169.348 28.5234 168.418 29.2266C167.488 29.9297 166.301 30.2812 164.855 30.2812C163.035 30.2812 161.59 29.7227 160.52 28.6055C159.457 27.4805 158.926 25.9062 158.926 23.8828C158.926 21.7891 159.465 20.1641 160.543 19.0078C161.621 17.8516 163.02 17.2734 164.738 17.2734C166.402 17.2734 167.762 17.8398 168.816 18.9727C169.871 20.1055 170.398 21.6992 170.398 23.7539C170.398 23.8789 170.395 24.0664 170.387 24.3164H161.105C161.184 25.6836 161.57 26.7305 162.266 27.457C162.961 28.1836 163.828 28.5469 164.867 28.5469C165.641 28.5469 166.301 28.3438 166.848 27.9375C167.395 27.5312 167.828 26.8828 168.148 25.9922ZM161.223 22.582H168.172C168.078 21.5352 167.812 20.75 167.375 20.2266C166.703 19.4141 165.832 19.0078 164.762 19.0078C163.793 19.0078 162.977 19.332 162.312 19.9805C161.656 20.6289 161.293 21.4961 161.223 22.582ZM172.965 30V17.5547H174.863V19.4414C175.348 18.5586 175.793 17.9766 176.199 17.6953C176.613 17.4141 177.066 17.2734 177.559 17.2734C178.27 17.2734 178.992 17.5 179.727 17.9531L179 19.9102C178.484 19.6055 177.969 19.4531 177.453 19.4531C176.992 19.4531 176.578 19.5938 176.211 19.875C175.844 20.1484 175.582 20.5312 175.426 21.0234C175.191 21.7734 175.074 22.5938 175.074 23.4844V30H172.965ZM180.137 26.2852L182.223 25.957C182.34 26.793 182.664 27.4336 183.195 27.8789C183.734 28.3242 184.484 28.5469 185.445 28.5469C186.414 28.5469 187.133 28.3516 187.602 27.9609C188.07 27.5625 188.305 27.0977 188.305 26.5664C188.305 26.0898 188.098 25.7148 187.684 25.4414C187.395 25.2539 186.676 25.0156 185.527 24.7266C183.98 24.3359 182.906 24 182.305 23.7188C181.711 23.4297 181.258 23.0352 180.945 22.5352C180.641 22.0273 180.488 21.4688 180.488 20.8594C180.488 20.3047 180.613 19.793 180.863 19.3242C181.121 18.8477 181.469 18.4531 181.906 18.1406C182.234 17.8984 182.68 17.6953 183.242 17.5312C183.812 17.3594 184.422 17.2734 185.07 17.2734C186.047 17.2734 186.902 17.4141 187.637 17.6953C188.379 17.9766 188.926 18.3594 189.277 18.8438C189.629 19.3203 189.871 19.9609 190.004 20.7656L187.941 21.0469C187.848 20.4062 187.574 19.9062 187.121 19.5469C186.676 19.1875 186.043 19.0078 185.223 19.0078C184.254 19.0078 183.562 19.168 183.148 19.4883C182.734 19.8086 182.527 20.1836 182.527 20.6133C182.527 20.8867 182.613 21.1328 182.785 21.3516C182.957 21.5781 183.227 21.7656 183.594 21.9141C183.805 21.9922 184.426 22.1719 185.457 22.4531C186.949 22.8516 187.988 23.1797 188.574 23.4375C189.168 23.6875 189.633 24.0547 189.969 24.5391C190.305 25.0234 190.473 25.625 190.473 26.3438C190.473 27.0469 190.266 27.7109 189.852 28.3359C189.445 28.9531 188.855 29.4336 188.082 29.7773C187.309 30.1133 186.434 30.2812 185.457 30.2812C183.84 30.2812 182.605 29.9453 181.754 29.2734C180.91 28.6016 180.371 27.6055 180.137 26.2852ZM192.992 15.2461V12.8203H195.102V15.2461H192.992ZM192.992 30V17.5547H195.102V30H192.992ZM206.398 30V28.4297C205.609 29.6641 204.449 30.2812 202.918 30.2812C201.926 30.2812 201.012 30.0078 200.176 29.4609C199.348 28.9141 198.703 28.1523 198.242 27.1758C197.789 26.1914 197.562 25.0625 197.562 23.7891C197.562 22.5469 197.77 21.4219 198.184 20.4141C198.598 19.3984 199.219 18.6211 200.047 18.082C200.875 17.543 201.801 17.2734 202.824 17.2734C203.574 17.2734 204.242 17.4336 204.828 17.7539C205.414 18.0664 205.891 18.4766 206.258 18.9844V12.8203H208.355V30H206.398ZM199.73 23.7891C199.73 25.3828 200.066 26.5742 200.738 27.3633C201.41 28.1523 202.203 28.5469 203.117 28.5469C204.039 28.5469 204.82 28.1719 205.461 27.4219C206.109 26.6641 206.434 25.5117 206.434 23.9648C206.434 22.2617 206.105 21.0117 205.449 20.2148C204.793 19.418 203.984 19.0195 203.023 19.0195C202.086 19.0195 201.301 19.4023 200.668 20.168C200.043 20.9336 199.73 22.1406 199.73 23.7891ZM219.805 28.4648C219.023 29.1289 218.27 29.5977 217.543 29.8711C216.824 30.1445 216.051 30.2812 215.223 30.2812C213.855 30.2812 212.805 29.9492 212.07 29.2852C211.336 28.6133 210.969 27.7578 210.969 26.7188C210.969 26.1094 211.105 25.5547 211.379 25.0547C211.66 24.5469 212.023 24.1406 212.469 23.8359C212.922 23.5312 213.43 23.3008 213.992 23.1445C214.406 23.0352 215.031 22.9297 215.867 22.8281C217.57 22.625 218.824 22.3828 219.629 22.1016C219.637 21.8125 219.641 21.6289 219.641 21.5508C219.641 20.6914 219.441 20.0859 219.043 19.7344C218.504 19.2578 217.703 19.0195 216.641 19.0195C215.648 19.0195 214.914 19.1953 214.438 19.5469C213.969 19.8906 213.621 20.5039 213.395 21.3867L211.332 21.1055C211.52 20.2227 211.828 19.5117 212.258 18.9727C212.688 18.4258 213.309 18.0078 214.121 17.7188C214.934 17.4219 215.875 17.2734 216.945 17.2734C218.008 17.2734 218.871 17.3984 219.535 17.6484C220.199 17.8984 220.688 18.2148 221 18.5977C221.312 18.9727 221.531 19.4492 221.656 20.0273C221.727 20.3867 221.762 21.0352 221.762 21.9727V24.7852C221.762 26.7461 221.805 27.9883 221.891 28.5117C221.984 29.0273 222.164 29.5234 222.43 30H220.227C220.008 29.5625 219.867 29.0508 219.805 28.4648ZM219.629 23.7539C218.863 24.0664 217.715 24.332 216.184 24.5508C215.316 24.6758 214.703 24.8164 214.344 24.9727C213.984 25.1289 213.707 25.3594 213.512 25.6641C213.316 25.9609 213.219 26.293 213.219 26.6602C213.219 27.2227 213.43 27.6914 213.852 28.0664C214.281 28.4414 214.906 28.6289 215.727 28.6289C216.539 28.6289 217.262 28.4531 217.895 28.1016C218.527 27.7422 218.992 27.2539 219.289 26.6367C219.516 26.1602 219.629 25.457 219.629 24.5273V23.7539ZM233.117 30V28.4297C232.328 29.6641 231.168 30.2812 229.637 30.2812C228.645 30.2812 227.73 30.0078 226.895 29.4609C226.066 28.9141 225.422 28.1523 224.961 27.1758C224.508 26.1914 224.281 25.0625 224.281 23.7891C224.281 22.5469 224.488 21.4219 224.902 20.4141C225.316 19.3984 225.938 18.6211 226.766 18.082C227.594 17.543 228.52 17.2734 229.543 17.2734C230.293 17.2734 230.961 17.4336 231.547 17.7539C232.133 18.0664 232.609 18.4766 232.977 18.9844V12.8203H235.074V30H233.117ZM226.449 23.7891C226.449 25.3828 226.785 26.5742 227.457 27.3633C228.129 28.1523 228.922 28.5469 229.836 28.5469C230.758 28.5469 231.539 28.1719 232.18 27.4219C232.828 26.6641 233.152 25.5117 233.152 23.9648C233.152 22.2617 232.824 21.0117 232.168 20.2148C231.512 19.418 230.703 19.0195 229.742 19.0195C228.805 19.0195 228.02 19.4023 227.387 20.168C226.762 20.9336 226.449 22.1406 226.449 23.7891ZM123.195 56.9805L127.848 58.3867C127.535 59.6914 127.043 60.7812 126.371 61.6562C125.699 62.5312 124.863 63.1914 123.863 63.6367C122.871 64.082 121.605 64.3047 120.066 64.3047C118.199 64.3047 116.672 64.0352 115.484 63.4961C114.305 62.9492 113.285 61.9922 112.426 60.625C111.566 59.2578 111.137 57.5078 111.137 55.375C111.137 52.5312 111.891 50.3477 113.398 48.8242C114.914 47.293 117.055 46.5273 119.82 46.5273C121.984 46.5273 123.684 46.9648 124.918 47.8398C126.16 48.7148 127.082 50.0586 127.684 51.8711L122.996 52.9141C122.832 52.3906 122.66 52.0078 122.48 51.7656C122.184 51.3594 121.82 51.0469 121.391 50.8281C120.961 50.6094 120.48 50.5 119.949 50.5C118.746 50.5 117.824 50.9844 117.184 51.9531C116.699 52.6719 116.457 53.8008 116.457 55.3398C116.457 57.2461 116.746 58.5547 117.324 59.2656C117.902 59.9688 118.715 60.3203 119.762 60.3203C120.777 60.3203 121.543 60.0352 122.059 59.4648C122.582 58.8945 122.961 58.0664 123.195 56.9805ZM143.938 58.9609H134.375C134.461 59.7266 134.668 60.2969 134.996 60.6719C135.457 61.2109 136.059 61.4805 136.801 61.4805C137.27 61.4805 137.715 61.3633 138.137 61.1289C138.395 60.9805 138.672 60.7188 138.969 60.3438L143.668 60.7773C142.949 62.0273 142.082 62.9258 141.066 63.4727C140.051 64.0117 138.594 64.2812 136.695 64.2812C135.047 64.2812 133.75 64.0508 132.805 63.5898C131.859 63.1211 131.074 62.3828 130.449 61.375C129.832 60.3594 129.523 59.168 129.523 57.8008C129.523 55.8555 130.145 54.2812 131.387 53.0781C132.637 51.875 134.359 51.2734 136.555 51.2734C138.336 51.2734 139.742 51.543 140.773 52.082C141.805 52.6211 142.59 53.4023 143.129 54.4258C143.668 55.4492 143.938 56.7812 143.938 58.4219V58.9609ZM139.086 56.6758C138.992 55.7539 138.742 55.0938 138.336 54.6953C137.938 54.2969 137.41 54.0977 136.754 54.0977C135.996 54.0977 135.391 54.3984 134.938 55C134.648 55.375 134.465 55.9336 134.387 56.6758H139.086ZM136.566 46.5273H140.668L136.883 50.0312H134.598L136.566 46.5273ZM145.285 60.5547L150.02 60.1094C150.215 60.6719 150.488 61.0742 150.84 61.3164C151.191 61.5586 151.66 61.6797 152.246 61.6797C152.887 61.6797 153.383 61.543 153.734 61.2695C154.008 61.0664 154.145 60.8125 154.145 60.5078C154.145 60.1641 153.965 59.8984 153.605 59.7109C153.348 59.5781 152.664 59.4141 151.555 59.2188C149.898 58.9297 148.746 58.6641 148.098 58.4219C147.457 58.1719 146.914 57.7539 146.469 57.168C146.031 56.582 145.812 55.9141 145.812 55.1641C145.812 54.3438 146.051 53.6367 146.527 53.043C147.004 52.4492 147.66 52.0078 148.496 51.7188C149.332 51.4219 150.453 51.2734 151.859 51.2734C153.344 51.2734 154.438 51.3867 155.141 51.6133C155.852 51.8398 156.441 52.1914 156.91 52.668C157.387 53.1445 157.781 53.7891 158.094 54.6016L153.57 55.0469C153.453 54.6484 153.258 54.3555 152.984 54.168C152.609 53.918 152.156 53.793 151.625 53.793C151.086 53.793 150.691 53.8906 150.441 54.0859C150.199 54.2734 150.078 54.5039 150.078 54.7773C150.078 55.082 150.234 55.3125 150.547 55.4688C150.859 55.625 151.539 55.7656 152.586 55.8906C154.172 56.0703 155.352 56.3203 156.125 56.6406C156.898 56.9609 157.488 57.418 157.895 58.0117C158.309 58.6055 158.516 59.2578 158.516 59.9688C158.516 60.6875 158.297 61.3867 157.859 62.0664C157.43 62.7461 156.746 63.2891 155.809 63.6953C154.879 64.0938 153.609 64.293 152 64.293C149.727 64.293 148.105 63.9688 147.137 63.3203C146.176 62.6719 145.559 61.75 145.285 60.5547ZM165.148 55.5859L160.59 55.1055C160.762 54.3086 161.008 53.6836 161.328 53.2305C161.656 52.7695 162.125 52.3711 162.734 52.0352C163.172 51.793 163.773 51.6055 164.539 51.4727C165.305 51.3398 166.133 51.2734 167.023 51.2734C168.453 51.2734 169.602 51.3555 170.469 51.5195C171.336 51.6758 172.059 52.0078 172.637 52.5156C173.043 52.8672 173.363 53.3672 173.598 54.0156C173.832 54.6562 173.949 55.2695 173.949 55.8555V61.3516C173.949 61.9375 173.984 62.3984 174.055 62.7344C174.133 63.0625 174.297 63.4844 174.547 64H170.07C169.891 63.6797 169.773 63.4375 169.719 63.2734C169.664 63.1016 169.609 62.8359 169.555 62.4766C168.93 63.0781 168.309 63.5078 167.691 63.7656C166.848 64.1094 165.867 64.2812 164.75 64.2812C163.266 64.2812 162.137 63.9375 161.363 63.25C160.598 62.5625 160.215 61.7148 160.215 60.707C160.215 59.7617 160.492 58.9844 161.047 58.375C161.602 57.7656 162.625 57.3125 164.117 57.0156C165.906 56.6562 167.066 56.4062 167.598 56.2656C168.129 56.1172 168.691 55.9258 169.285 55.6914C169.285 55.1055 169.164 54.6953 168.922 54.4609C168.68 54.2266 168.254 54.1094 167.645 54.1094C166.863 54.1094 166.277 54.2344 165.887 54.4844C165.582 54.6797 165.336 55.0469 165.148 55.5859ZM169.285 58.0938C168.629 58.3281 167.945 58.5352 167.234 58.7148C166.266 58.9727 165.652 59.2266 165.395 59.4766C165.129 59.7344 164.996 60.0273 164.996 60.3555C164.996 60.7305 165.125 61.0391 165.383 61.2812C165.648 61.5156 166.035 61.6328 166.543 61.6328C167.074 61.6328 167.566 61.5039 168.02 61.2461C168.48 60.9883 168.805 60.6758 168.992 60.3086C169.188 59.9336 169.285 59.4492 169.285 58.8555V58.0938ZM176.855 51.5547H181.32V53.5938C181.75 52.7109 182.191 52.1055 182.645 51.7773C183.105 51.4414 183.672 51.2734 184.344 51.2734C185.047 51.2734 185.816 51.4922 186.652 51.9297L185.176 55.3281C184.613 55.0938 184.168 54.9766 183.84 54.9766C183.215 54.9766 182.73 55.2344 182.387 55.75C181.895 56.4766 181.648 57.8359 181.648 59.8281V64H176.855V51.5547ZM194.105 46.8203H199.66L203.527 59.1836L207.336 46.8203H212.727L206.352 64H200.598L194.105 46.8203ZM217.484 55.5859L212.926 55.1055C213.098 54.3086 213.344 53.6836 213.664 53.2305C213.992 52.7695 214.461 52.3711 215.07 52.0352C215.508 51.793 216.109 51.6055 216.875 51.4727C217.641 51.3398 218.469 51.2734 219.359 51.2734C220.789 51.2734 221.938 51.3555 222.805 51.5195C223.672 51.6758 224.395 52.0078 224.973 52.5156C225.379 52.8672 225.699 53.3672 225.934 54.0156C226.168 54.6562 226.285 55.2695 226.285 55.8555V61.3516C226.285 61.9375 226.32 62.3984 226.391 62.7344C226.469 63.0625 226.633 63.4844 226.883 64H222.406C222.227 63.6797 222.109 63.4375 222.055 63.2734C222 63.1016 221.945 62.8359 221.891 62.4766C221.266 63.0781 220.645 63.5078 220.027 63.7656C219.184 64.1094 218.203 64.2812 217.086 64.2812C215.602 64.2812 214.473 63.9375 213.699 63.25C212.934 62.5625 212.551 61.7148 212.551 60.707C212.551 59.7617 212.828 58.9844 213.383 58.375C213.938 57.7656 214.961 57.3125 216.453 57.0156C218.242 56.6562 219.402 56.4062 219.934 56.2656C220.465 56.1172 221.027 55.9258 221.621 55.6914C221.621 55.1055 221.5 54.6953 221.258 54.4609C221.016 54.2266 220.59 54.1094 219.98 54.1094C219.199 54.1094 218.613 54.2344 218.223 54.4844C217.918 54.6797 217.672 55.0469 217.484 55.5859ZM221.621 58.0938C220.965 58.3281 220.281 58.5352 219.57 58.7148C218.602 58.9727 217.988 59.2266 217.73 59.4766C217.465 59.7344 217.332 60.0273 217.332 60.3555C217.332 60.7305 217.461 61.0391 217.719 61.2812C217.984 61.5156 218.371 61.6328 218.879 61.6328C219.41 61.6328 219.902 61.5039 220.355 61.2461C220.816 60.9883 221.141 60.6758 221.328 60.3086C221.523 59.9336 221.621 59.4492 221.621 58.8555V58.0938ZM229.309 46.8203H234.09V64H229.309V46.8203ZM237.301 46.8203H242.082V64H237.301V46.8203ZM258.945 58.9609H249.383C249.469 59.7266 249.676 60.2969 250.004 60.6719C250.465 61.2109 251.066 61.4805 251.809 61.4805C252.277 61.4805 252.723 61.3633 253.145 61.1289C253.402 60.9805 253.68 60.7188 253.977 60.3438L258.676 60.7773C257.957 62.0273 257.09 62.9258 256.074 63.4727C255.059 64.0117 253.602 64.2812 251.703 64.2812C250.055 64.2812 248.758 64.0508 247.812 63.5898C246.867 63.1211 246.082 62.3828 245.457 61.375C244.84 60.3594 244.531 59.168 244.531 57.8008C244.531 55.8555 245.152 54.2812 246.395 53.0781C247.645 51.875 249.367 51.2734 251.562 51.2734C253.344 51.2734 254.75 51.543 255.781 52.082C256.812 52.6211 257.598 53.4023 258.137 54.4258C258.676 55.4492 258.945 56.7812 258.945 58.4219V58.9609ZM254.094 56.6758C254 55.7539 253.75 55.0938 253.344 54.6953C252.945 54.2969 252.418 54.0977 251.762 54.0977C251.004 54.0977 250.398 54.3984 249.945 55C249.656 55.375 249.473 55.9336 249.395 56.6758H254.094ZM261.324 46.8203H266.105V50.1016H261.324V46.8203ZM261.324 51.5547H266.105V63.625C266.105 65.1641 265.992 66.2539 265.766 66.8945C265.547 67.5352 265.137 68.0547 264.535 68.4531C263.934 68.8516 263.074 69.0508 261.957 69.0508C261.035 69.0508 259.891 68.9141 258.523 68.6406L259.238 65.1719C259.621 65.25 259.902 65.2891 260.082 65.2891C260.488 65.2891 260.797 65.1484 261.008 64.8672C261.219 64.5938 261.324 64.043 261.324 63.2148V51.5547ZM268.543 57.8125C268.543 55.9141 269.184 54.3516 270.465 53.125C271.746 51.8906 273.477 51.2734 275.656 51.2734C278.148 51.2734 280.031 51.9961 281.305 53.4414C282.328 54.6055 282.84 56.0391 282.84 57.7422C282.84 59.6562 282.203 61.2266 280.93 62.4531C279.664 63.6719 277.91 64.2812 275.668 64.2812C273.668 64.2812 272.051 63.7734 270.816 62.7578C269.301 61.5 268.543 59.8516 268.543 57.8125ZM273.324 57.8008C273.324 58.9102 273.547 59.7305 273.992 60.2617C274.445 60.793 275.012 61.0586 275.691 61.0586C276.379 61.0586 276.941 60.7969 277.379 60.2734C277.824 59.75 278.047 58.9102 278.047 57.7539C278.047 56.6758 277.824 55.875 277.379 55.3516C276.934 54.8203 276.383 54.5547 275.727 54.5547C275.031 54.5547 274.457 54.8242 274.004 55.3633C273.551 55.8945 273.324 56.707 273.324 57.8008Z" fill="white"/>
<defs>
<filter id="filter0_dd_59_2" x="0" y="0" width="77" height="88" filterUnits="userSpaceOnUse" color-interpolation-filters="sRGB">
<feFlood flood-opacity="0" result="BackgroundImageFix"/>
<feColorMatrix in="SourceAlpha" type="matrix" values="0 0 0 0 0 0 0 0 0 0 0 0 0 0 0 0 0 0 127 0" result="hardAlpha"/>
<feOffset dy="4"/>
<feGaussianBlur stdDeviation="2"/>
<feComposite in2="hardAlpha" operator="out"/>
<feColorMatrix type="matrix" values="0 0 0 0 0 0 0 0 0 0 0 0 0 0 0 0 0 0 0.25 0"/>
<feBlend mode="normal" in2="BackgroundImageFix" result="effect1_dropShadow_59_2"/>
<feColorMatrix in="SourceAlpha" type="matrix" values="0 0 0 0 0 0 0 0 0 0 0 0 0 0 0 0 0 0 127 0" result="hardAlpha"/>
<feOffset dy="4"/>
<feGaussianBlur stdDeviation="2"/>
<feComposite in2="hardAlpha" operator="out"/>
<feColorMatrix type="matrix" values="0 0 0 0 0 0 0 0 0 0 0 0 0 0 0 0 0 0 0.25 0"/>
<feBlend mode="normal" in2="effect1_dropShadow_59_2" result="effect2_dropShadow_59_2"/>
<feBlend mode="normal" in="SourceGraphic" in2="effect2_dropShadow_59_2" result="shape"/>
</filter>
</defs>
</svg>
